<?xml version="1.0" standalone="no"?>
<!DOCTYPE svg PUBLIC "-//W3C//DTD SVG 20010904//EN"
 "http://www.w3.org/TR/2001/REC-SVG-20010904/DTD/svg10.dtd">
<svg version="1.0" xmlns="http://www.w3.org/2000/svg"
 width="100.000000pt" height="100.000000pt" viewBox="0 0 100.000000 100.000000"
 preserveAspectRatio="xMidYMid meet">

<g transform="translate(0.000000,100.000000) scale(0.100000,-0.100000)"
fill="#000000" stroke="none">
<path d="M357 860 c12 -5 25 -15 30 -22 4 -7 22 -20 38 -28 17 -8 34 -16 39
-19 5 -2 6 1 2 7 -4 7 -13 12 -20 12 -7 0 -28 14 -46 30 -18 17 -41 30 -49 29
-11 0 -9 -3 6 -9z"/>
<path d="M315 849 c-4 -6 -5 -12 -2 -15 2 -3 7 2 10 11 7 17 1 20 -8 4z"/>
<path d="M246 816 c-41 -54 -29 -87 29 -85 30 2 30 2 -5 8 -26 4 -36 12 -38
29 -2 13 3 25 12 28 9 3 16 13 16 20 0 8 10 19 23 24 15 6 17 9 6 9 -9 1 -28
-14 -43 -33z"/>
<path d="M410 740 l-55 -7 52 -1 c28 -1 55 3 58 8 3 6 5 9 3 8 -2 -1 -28 -4
-58 -8z"/>
<path d="M361 693 c-1 -7 -11 -13 -24 -13 -13 0 -28 -5 -35 -12 -17 -17 -17
-389 0 -406 8 -8 57 -12 155 -12 135 0 143 -1 143 -19 0 -33 28 -51 73 -49
l42 1 -40 4 c-22 3 -45 9 -52 15 -18 15 -16 45 5 60 9 7 22 22 28 33 8 13 22
20 40 19 17 0 34 7 42 17 7 10 20 20 30 22 9 2 7 3 -5 2 -23 -2 -23 -2 -23
149 0 160 -4 176 -46 176 -12 0 -25 6 -27 13 -4 10 -6 10 -6 0 -1 -7 -10 -13
-20 -13 -11 0 -22 6 -24 13 -4 10 -6 10 -6 0 -1 -7 -10 -13 -20 -13 -11 0 -22
6 -24 13 -4 10 -6 10 -6 0 -1 -7 -10 -13 -20 -13 -11 0 -22 6 -24 13 -4 10 -6
10 -6 0 -1 -7 -10 -13 -20 -13 -11 0 -22 6 -24 13 -4 10 -6 10 -6 0 -1 -7 -10
-13 -20 -13 -11 0 -22 6 -24 13 -4 10 -6 10 -6 0 -1 -7 -10 -13 -20 -13 -11 0
-22 6 -24 13 -4 10 -6 10 -6 0z m0 -35 c0 -10 2 -10 6 0 2 6 13 12 24 12 10 0
19 -6 20 -12 0 -10 2 -10 6 0 2 6 13 12 24 12 10 0 19 -6 20 -12 0 -10 2 -10
6 0 2 6 13 12 24 12 10 0 19 -6 20 -12 0 -10 2 -10 6 0 2 6 13 12 24 12 10 0
19 -6 20 -12 0 -10 2 -10 6 0 2 6 13 12 24 12 10 0 19 -6 20 -12 0 -10 2 -10
6 0 2 6 13 12 24 12 10 0 19 -6 20 -12 0 -10 2 -10 6 0 6 15 35 16 51 0 7 -7
12 -29 12 -50 0 -34 -3 -38 -27 -39 l-28 -2 28 -4 28 -4 -3 -116 -3 -116 -34
-1 c-20 -1 -36 -7 -39 -15 -2 -7 -13 -22 -23 -32 -17 -17 -36 -19 -162 -19
-98 0 -147 4 -155 12 -8 8 -12 56 -12 150 l0 138 163 2 162 2 -162 3 -163 3 0
38 c0 21 5 43 12 50 16 16 48 15 49 0z"/>
<path d="M335 620 c-8 -14 3 -30 21 -30 8 0 14 9 14 20 0 21 -24 28 -35 10z
m25 -10 c0 -5 -2 -10 -4 -10 -3 0 -8 5 -11 10 -3 6 -1 10 4 10 6 0 11 -4 11
-10z"/>
<path d="M655 620 c-8 -14 3 -30 21 -30 8 0 14 9 14 20 0 21 -24 28 -35 10z
m25 -10 c0 -5 -2 -10 -4 -10 -3 0 -8 5 -11 10 -3 6 -1 10 4 10 6 0 11 -4 11
-10z"/>
<path d="M460 505 c0 -20 5 -25 25 -25 20 0 25 5 25 25 0 20 -5 25 -25 25 -20
0 -25 -5 -25 -25z m40 0 c0 -8 -7 -15 -15 -15 -8 0 -15 7 -15 15 0 8 7 15 15
15 8 0 15 -7 15 -15z"/>
<path d="M520 505 c0 -20 5 -25 25 -25 20 0 25 5 25 25 0 20 -5 25 -25 25 -20
0 -25 -5 -25 -25z m40 0 c0 -8 -7 -15 -15 -15 -8 0 -15 7 -15 15 0 8 7 15 15
15 8 0 15 -7 15 -15z"/>
<path d="M580 505 c0 -20 5 -25 25 -25 20 0 25 5 25 25 0 20 -5 25 -25 25 -20
0 -25 -5 -25 -25z m40 0 c0 -8 -7 -15 -15 -15 -8 0 -15 7 -15 15 0 8 7 15 15
15 8 0 15 -7 15 -15z"/>
<path d="M640 505 c0 -20 5 -25 25 -25 20 0 25 5 25 25 0 20 -5 25 -25 25 -20
0 -25 -5 -25 -25z m40 0 c0 -8 -7 -15 -15 -15 -8 0 -15 7 -15 15 0 8 7 15 15
15 8 0 15 -7 15 -15z"/>
<path d="M340 445 c0 -20 5 -25 25 -25 20 0 25 5 25 25 0 20 -5 25 -25 25 -20
0 -25 -5 -25 -25z m40 0 c0 -8 -7 -15 -15 -15 -8 0 -15 7 -15 15 0 8 7 15 15
15 8 0 15 -7 15 -15z"/>
<path d="M400 445 c0 -20 5 -25 25 -25 20 0 25 5 25 25 0 20 -5 25 -25 25 -20
0 -25 -5 -25 -25z m40 0 c0 -8 -7 -15 -15 -15 -8 0 -15 7 -15 15 0 8 7 15 15
15 8 0 15 -7 15 -15z"/>
<path d="M460 445 c0 -20 5 -25 25 -25 20 0 25 5 25 25 0 20 -5 25 -25 25 -20
0 -25 -5 -25 -25z m40 0 c0 -8 -7 -15 -15 -15 -8 0 -15 7 -15 15 0 8 7 15 15
15 8 0 15 -7 15 -15z"/>
<path d="M520 445 c0 -20 5 -25 25 -25 20 0 25 5 25 25 0 20 -5 25 -25 25 -20
0 -25 -5 -25 -25z m40 0 c0 -8 -7 -15 -15 -15 -8 0 -15 7 -15 15 0 8 7 15 15
15 8 0 15 -7 15 -15z"/>
<path d="M580 445 c0 -20 5 -25 25 -25 20 0 25 5 25 25 0 20 -5 25 -25 25 -20
0 -25 -5 -25 -25z m40 0 c0 -8 -7 -15 -15 -15 -8 0 -15 7 -15 15 0 8 7 15 15
15 8 0 15 -7 15 -15z"/>
<path d="M640 445 c0 -20 5 -25 25 -25 20 0 25 5 25 25 0 20 -5 25 -25 25 -20
0 -25 -5 -25 -25z m40 0 c0 -8 -7 -15 -15 -15 -8 0 -15 7 -15 15 0 8 7 15 15
15 8 0 15 -7 15 -15z"/>
<path d="M340 385 c0 -20 5 -25 25 -25 20 0 25 5 25 25 0 20 -5 25 -25 25 -20
0 -25 -5 -25 -25z m40 0 c0 -8 -7 -15 -15 -15 -8 0 -15 7 -15 15 0 8 7 15 15
15 8 0 15 -7 15 -15z"/>
<path d="M400 385 c0 -20 5 -25 25 -25 20 0 25 5 25 25 0 20 -5 25 -25 25 -20
0 -25 -5 -25 -25z m40 0 c0 -8 -7 -15 -15 -15 -8 0 -15 7 -15 15 0 8 7 15 15
15 8 0 15 -7 15 -15z"/>
<path d="M460 385 c0 -20 5 -25 25 -25 20 0 25 5 25 25 0 20 -5 25 -25 25 -20
0 -25 -5 -25 -25z m40 0 c0 -8 -7 -15 -15 -15 -8 0 -15 7 -15 15 0 8 7 15 15
15 8 0 15 -7 15 -15z"/>
<path d="M520 385 c0 -20 5 -25 25 -25 20 0 25 5 25 25 0 20 -5 25 -25 25 -20
0 -25 -5 -25 -25z m40 0 c0 -8 -7 -15 -15 -15 -8 0 -15 7 -15 15 0 8 7 15 15
15 8 0 15 -7 15 -15z"/>
<path d="M580 385 c0 -20 5 -25 25 -25 20 0 25 5 25 25 0 20 -5 25 -25 25 -20
0 -25 -5 -25 -25z m40 0 c0 -8 -7 -15 -15 -15 -8 0 -15 7 -15 15 0 8 7 15 15
15 8 0 15 -7 15 -15z"/>
<path d="M640 385 c0 -20 5 -25 25 -25 20 0 25 5 25 25 0 20 -5 25 -25 25 -20
0 -25 -5 -25 -25z m40 0 c0 -8 -7 -15 -15 -15 -8 0 -15 7 -15 15 0 8 7 15 15
15 8 0 15 -7 15 -15z"/>
<path d="M340 325 c0 -20 5 -25 25 -25 20 0 25 5 25 25 0 20 -5 25 -25 25 -20
0 -25 -5 -25 -25z m40 0 c0 -8 -7 -15 -15 -15 -8 0 -15 7 -15 15 0 8 7 15 15
15 8 0 15 -7 15 -15z"/>
<path d="M400 325 c0 -20 5 -25 25 -25 20 0 25 5 25 25 0 20 -5 25 -25 25 -20
0 -25 -5 -25 -25z m40 0 c0 -8 -7 -15 -15 -15 -8 0 -15 7 -15 15 0 8 7 15 15
15 8 0 15 -7 15 -15z"/>
<path d="M460 325 c0 -20 5 -25 25 -25 20 0 25 5 25 25 0 20 -5 25 -25 25 -20
0 -25 -5 -25 -25z m40 0 c0 -8 -7 -15 -15 -15 -8 0 -15 7 -15 15 0 8 7 15 15
15 8 0 15 -7 15 -15z"/>
<path d="M520 325 c0 -20 5 -25 25 -25 20 0 25 5 25 25 0 20 -5 25 -25 25 -20
0 -25 -5 -25 -25z m40 0 c0 -8 -7 -15 -15 -15 -8 0 -15 7 -15 15 0 8 7 15 15
15 8 0 15 -7 15 -15z"/>
<path d="M580 325 c0 -20 5 -25 25 -25 20 0 25 5 25 25 0 20 -5 25 -25 25 -20
0 -25 -5 -25 -25z m40 0 c0 -8 -7 -15 -15 -15 -8 0 -15 7 -15 15 0 8 7 15 15
15 8 0 15 -7 15 -15z"/>
<path d="M812 325 c8 -24 16 -30 38 -30 16 0 26 3 23 8 -2 4 -12 7 -22 7 -10
0 -26 10 -34 23 -15 21 -16 21 -5 -8z"/>
<path d="M900 267 c29 -14 37 -41 20 -62 -9 -11 -37 -16 -99 -17 l-86 -2 84
-3 c88 -4 121 9 121 47 0 20 -31 50 -51 50 -8 0 -3 -6 11 -13z"/>
</g>
</svg>
